<svg xmlns="http://www.w3.org/2000/svg" width="1080" height="1080" viewBox="0 0 1080 1080">
  <defs>
    <linearGradient id="bg" x1="0" y1="0" x2="1" y2="1">
      <stop offset="0" stop-color="#FFF3B0"/>
      <stop offset="0.55" stop-color="#F5C518"/>
      <stop offset="1" stop-color="#D4A000"/>
    </linearGradient>
    <filter id="shadow" x="-20%" y="-20%" width="140%" height="140%">
      <feDropShadow dx="0" dy="18" stdDeviation="18" flood-color="#8A6700" flood-opacity="0.25"/>
    </filter>
  </defs>
  <rect width="1080" height="1080" fill="url(#bg)"/>
  <circle cx="158" cy="176" r="190" fill="#FFFFFF" opacity="0.18"/>
  <circle cx="950" cy="165" r="125" fill="#FFFFFF" opacity="0.12"/>
  <circle cx="910" cy="912" r="245" fill="#FFFFFF" opacity="0.14"/>
  <circle cx="540" cy="475" r="282" fill="#FFFFFF" opacity="0.92" filter="url(#shadow)"/>
  <path d="M458 270 C506 258,552 277,583 320 C621 276,681 263,734 294 C683 359,640 432,609 526 L702 722 L584 675 L498 744 L501 535 C470 435,417 358,346 301 C380 282,419 271,458 270 Z" fill="#F5C518" stroke="#D4A000" stroke-width="14" stroke-linejoin="round"/>
  <path d="M434 303 C497 342,540 413,562 520" fill="none" stroke="#FFF3B0" stroke-width="22" stroke-linecap="round" opacity="0.9"/>
  <path d="M705 314 C647 356,608 426,584 523" fill="none" stroke="#FFF3B0" stroke-width="22" stroke-linecap="round" opacity="0.9"/>
  <text x="540" y="815" text-anchor="middle" font-family="Inter, Arial, sans-serif" font-size="72" font-weight="800" fill="#2D2D2D" letter-spacing="-1">Julho Amarelo</text>
  <text x="540" y="870" text-anchor="middle" font-family="Inter, Arial, sans-serif" font-size="34" font-weight="600" fill="#6B6B6B">Prevenção às hepatites virais</text>
  <rect x="190" y="930" width="700" height="74" rx="37" fill="#FFFFFF" opacity="0.88"/>
  <text x="540" y="977" text-anchor="middle" font-family="Inter, Arial, sans-serif" font-size="25" font-weight="700" fill="#2D2D2D">[BRASÃO]  Secretaria Municipal de Saúde  [LOGO]</text>
</svg>
